# xmcd CD database file
#
# Track frame offsets:
#	150
#	21841
#	31267
#	44570
#	71475
#	93143
#	118294
#	135886
#	152112
#	175855
#	197645
#	211525
#	226590
#
# Disc length: 3257 seconds
#
# Revision: 0
# Processed by: cddbd v1.5.2PL0 Copyright (c) Steve Scherf et al.
# Submitted via: CDex 1.70beta2
#
DISCID=9e0cb70d
DTITLE=brian bromberg - hands
DYEAR=2009
DGENRE=Jazz
TTITLE0=stella by starlight
TTITLE1=cute
TTITLE2=solar
TTITLE3=beatles medley
TTITLE4=manha de carnival
TTITLE5=in a sentimental mood
TTITLE6=king of pain
TTITLE7=teen town
TTITLE8=susumu's blus
TTITLE9=use me
TTITLE10=black dog
TTITLE11=what are you ding the rest of your life
TTITLE12=yeah
EXTD=
EXTT0=
EXTT1=
EXTT2=
EXTT3=
EXTT4=
EXTT5=
EXTT6=
EXTT7=
EXTT8=
EXTT9=
EXTT10=
EXTT11=
EXTT12=
PLAYORDER=
